<svg xmlns="http://www.w3.org/2000/svg" xmlns:svg="http://www.w3.org/2000/svg" xmlns:xlink="http://www.w3.org/1999/xlink" id="svg5" width="210mm" height="297mm" version="1.1" viewBox="0 0 210 297"><title id="title3591">CeintureEnroule</title><defs id="defs2"><linearGradient id="linearGradient7241"><stop style="stop-color:#f1e1e1;stop-opacity:1" id="stop7237" offset="0"/><stop style="stop-color:#f1e1e1;stop-opacity:0" id="stop7239" offset="1"/></linearGradient><linearGradient id="linearGradient7243" x1="61.658" x2="179.278" y1="121.44" y2="121.44" gradientUnits="userSpaceOnUse" xlink:href="#linearGradient7241"/></defs><g id="layer1" style="fill:#00f"><path style="fill:url(#linearGradient7243);fill-rule:evenodd;stroke:#f1e1e1;stroke-width:12.465;stroke-dasharray:none;stroke-opacity:1;fill-opacity:1" id="path368" d="m 111.1891,118.39003 c 3.39071,-4.95318 10.52302,-5.01409 14.95511,-1.49453 6.17367,4.90258 6.09637,14.20492 1.15909,19.93589 -6.38508,7.4115 -17.8993,7.18951 -24.91665,0.82366 -8.658408,-7.85455 -8.288627,-21.60022 -0.48823,-29.89743 9.31715,-9.910574 25.30502,-9.391341 34.8782,-0.1528 11.16604,10.77573 10.49639,29.01233 -0.18263,39.85897 -12.23172,12.42371 -32.72136,11.60305 -44.83975,-0.51806 -13.682908,-13.68597 -12.710827,-36.43161 0.853492,-49.820516 15.138988,-14.94322 40.142778,-13.819447 54.801298,1.188922 16.20436,16.591114 14.9287,43.854634 -1.52436,59.782064 -18.04255,17.46615 -47.567034,16.03845 -64.762838,-1.85978 C 62.393406,136.74296 63.973251,104.95655 83.317047,86.492805 104.261,66.501699 138.31009,68.233778 158.04143,89.023452 c 18.64705,19.647208 19.87104,50.709898 3.76236,72.267928"/></g><g id="layer2" style="display:none"><path style="fill:#000;stroke:#000;stroke-width:1;stroke-dasharray:none;stroke-opacity:1" id="path4868" d="M 164.6448,165.6631 C 101.82041,111.84956 101.82041,111.84956 101.82041,111.84956"/></g><metadata id="metadata3589"/></svg>